  <svg width="0" height="0" style="position:absolute" aria-hidden="true"><defs>
    <symbol id="i-moon" viewBox="0 0 24 24"><path fill="currentColor" d="M21 13.2A8.6 8.6 0 0 1 10.8 3 8.9 8.9 0 1 0 21 13.2z"/></symbol>
    <symbol id="m-new" viewBox="0 0 24 24"><circle cx="12" cy="12" r="8.6" fill="none" stroke="currentColor" stroke-width="2"/></symbol>
    <symbol id="m-cres" viewBox="0 0 24 24"><circle cx="12" cy="12" r="8.6" fill="none" stroke="currentColor" stroke-width="2"/><path fill="currentColor" d="M12 3.4a8.6 8.6 0 0 1 0 17.2 10.5 10.5 0 0 0 3.4-8.6A10.5 10.5 0 0 0 12 3.4z"/></symbol>
    <symbol id="m-half" viewBox="0 0 24 24"><circle cx="12" cy="12" r="8.6" fill="none" stroke="currentColor" stroke-width="2"/><path fill="currentColor" d="M12 3.4a8.6 8.6 0 0 1 0 17.2z"/></symbol>
    <symbol id="m-gib" viewBox="0 0 24 24"><circle cx="12" cy="12" r="8.6" fill="none" stroke="currentColor" stroke-width="2"/><path fill="currentColor" d="M12 3.4a8.6 8.6 0 0 1 0 17.2 5 5 0 0 1-2.5-8.6A5 5 0 0 1 12 3.4z"/></symbol>
    <symbol id="m-full" viewBox="0 0 24 24"><circle cx="12" cy="12" r="9.6" fill="currentColor"/></symbol>
    <symbol id="i-drop" viewBox="0 0 24 24"><path fill="currentColor" d="M12 2.7s6.8 7.3 6.8 12A6.8 6.8 0 0 1 5.2 14.7c0-4.7 6.8-12 6.8-12z"/></symbol>
    <symbol id="i-star" viewBox="0 0 24 24"><path fill="currentColor" d="m12 2.5 2.8 6.2 6.7.7-5 4.5 1.4 6.6L12 17l-5.9 3.5 1.4-6.6-5-4.5 6.7-.7z"/></symbol>
    <symbol id="i-up" viewBox="0 0 24 24"><path fill="none" stroke="currentColor" stroke-width="2.4" stroke-linecap="round" stroke-linejoin="round" d="M12 20V5m0 0-6 6m6-6 6 6"/></symbol>
    <symbol id="i-chart" viewBox="0 0 24 24"><path fill="none" stroke="currentColor" stroke-width="2.2" stroke-linecap="round" stroke-linejoin="round" d="M3 20h18M5 16l4-5 3 3 6-8"/><circle cx="18" cy="6" r="1.8" fill="currentColor"/></symbol>
    <symbol id="i-book" viewBox="0 0 24 24"><path fill="none" stroke="currentColor" stroke-width="2" stroke-linejoin="round" d="M12 6.5C10 4.8 7 4.5 4 4.8v13.9c3-.3 6 0 8 1.6 2-1.6 5-1.9 8-1.6V4.8c-3-.3-6 0-8 1.7z"/><path fill="none" stroke="currentColor" stroke-width="2" d="M12 6.5v13.8"/></symbol>
    <symbol id="i-lib" viewBox="0 0 24 24"><path fill="none" stroke="currentColor" stroke-width="2" stroke-linejoin="round" d="M5 4h4v16H5zM11 4h4v16h-4zM17.5 5.5l3.8 1-3.9 14-3.8-1z"/></symbol>
    <symbol id="i-gear" viewBox="0 0 24 24"><path fill="none" stroke="currentColor" stroke-width="2" stroke-linejoin="round" d="m10.3 4 .4-1.8h2.6l.4 1.8 1.7.7 1.6-1 1.8 1.9-.9 1.5.7 1.7 1.8.4v2.6l-1.8.4-.7 1.7 1 1.6-1.9 1.8-1.5-.9-1.7.7-.4 1.8h-2.6l-.4-1.8-1.7-.7-1.6 1-1.8-1.9.9-1.5-.7-1.7-1.8-.4v-2.6l1.8-.4.7-1.7-1-1.6 1.9-1.8 1.5.9z"/><circle cx="12" cy="12" r="3" fill="none" stroke="currentColor" stroke-width="2"/></symbol>
    <symbol id="i-share" viewBox="0 0 24 24"><path fill="none" stroke="currentColor" stroke-width="2.1" stroke-linecap="round" stroke-linejoin="round" d="M12 3v12m0-12L8 7m4-4 4 4M6 11H5a1 1 0 0 0-1 1v8a1 1 0 0 0 1 1h14a1 1 0 0 0 1-1v-8a1 1 0 0 0-1-1h-1"/></symbol>
    <symbol id="i-search" viewBox="0 0 24 24"><circle cx="10.5" cy="10.5" r="6.5" fill="none" stroke="currentColor" stroke-width="2.2"/><path stroke="currentColor" stroke-width="2.2" stroke-linecap="round" d="m15.5 15.5 5 5"/></symbol>
    <symbol id="i-chev" viewBox="0 0 24 24"><path fill="none" stroke="currentColor" stroke-width="2.4" stroke-linecap="round" stroke-linejoin="round" d="m9 5 7 7-7 7"/></symbol>
    <symbol id="i-back" viewBox="0 0 24 24"><path fill="none" stroke="currentColor" stroke-width="2.4" stroke-linecap="round" stroke-linejoin="round" d="M15 5l-7 7 7 7"/></symbol>
    <symbol id="i-check" viewBox="0 0 24 24"><path fill="none" stroke="currentColor" stroke-width="3" stroke-linecap="round" stroke-linejoin="round" d="m4.5 12.5 5 5 10-11"/></symbol>
    <symbol id="i-therm" viewBox="0 0 24 24"><path fill="none" stroke="currentColor" stroke-width="2.1" stroke-linecap="round" d="M10 14.2V5a2 2 0 0 1 4 0v9.2a4.2 4.2 0 1 1-4 0z"/><circle cx="12" cy="17.5" r="1.7" fill="currentColor"/></symbol>
    <symbol id="i-flag" viewBox="0 0 24 24"><path fill="none" stroke="currentColor" stroke-width="2.2" stroke-linecap="round" stroke-linejoin="round" d="M5 21V4m0 1h13l-2.5 4L18 13H5"/></symbol>
    <symbol id="i-lock" viewBox="0 0 24 24"><rect x="5" y="10.5" width="14" height="9.5" rx="2.5" fill="none" stroke="currentColor" stroke-width="2.1"/><path fill="none" stroke="currentColor" stroke-width="2.1" d="M8 10V7.8a4 4 0 0 1 8 0V10"/></symbol>
    <symbol id="i-heart" viewBox="0 0 24 24"><path fill="none" stroke="currentColor" stroke-width="2.1" stroke-linejoin="round" d="M12 20.5S3.5 15 3.5 9.3a4.6 4.6 0 0 1 8.5-2.5 4.6 4.6 0 0 1 8.5 2.5c0 5.7-8.5 11.2-8.5 11.2z"/></symbol>
    <symbol id="i-seed" viewBox="0 0 24 24"><path fill="none" stroke="currentColor" stroke-width="2.1" stroke-linecap="round" stroke-linejoin="round" d="M12 21v-8m0 0c0-4 3-7 8-7 0 4-3 7-8 7zm0 0c0-3-2.5-5.5-6.5-5.5C5.5 18.5 8 13 12 13z"/></symbol>
    <symbol id="i-x" viewBox="0 0 24 24"><path stroke="currentColor" stroke-width="2.4" stroke-linecap="round" d="M6 6l12 12M18 6L6 18"/></symbol>
  </defs></svg>
